<?xml version="1.0" encoding="UTF-8"?>
<svg xmlns="http://www.w3.org/2000/svg" xmlns:xlink="http://www.w3.org/1999/xlink" version="1.1" width="4192px" height="2243px" style="shape-rendering:geometricPrecision; text-rendering:geometricPrecision; image-rendering:optimizeQuality; fill-rule:evenodd; clip-rule:evenodd">
  <g>
    <path style="opacity:0.959" fill="#000000" d="M 2695.5,-0.5 C 2707.83,-0.5 2720.17,-0.5 2732.5,-0.5C 2754.98,2.83246 2775.65,10.9991 2794.5,24C 2823.74,44.24 2845.24,70.74 2859,103.5C 2871.54,135.543 2871.54,167.543 2859,199.5C 2843.08,231.859 2816.92,248.193 2780.5,248.5C 2759.73,248.411 2741.07,242.244 2724.5,230C 2706.48,212.42 2700.31,191.253 2706,166.5C 2709.09,149.428 2718.26,136.928 2733.5,129C 2747.66,124.582 2760.32,127.248 2771.5,137C 2774.92,139.719 2777.42,142.886 2779,146.5C 2766.36,138.653 2755.03,140.319 2745,151.5C 2732.3,178.391 2738.46,199.891 2763.5,216C 2781.64,227.432 2800.97,230.432 2821.5,225C 2842.15,213.571 2854.32,196.071 2858,172.5C 2861.75,106.822 2835.58,56.989 2779.5,23C 2728.72,-2.55443 2679.72,0.445571 2632.5,32C 2592.84,62.3221 2573.51,102.655 2574.5,153C 2577.47,235.632 2612.14,300.965 2678.5,349C 2708.26,368.885 2739.59,386.218 2772.5,401C 2871.65,445.572 2970.31,491.239 3068.5,538C 3070.83,538.667 3073.17,538.667 3075.5,538C 3086.68,536.472 3097.68,534.305 3108.5,531.5C 3119.18,513.476 3130.84,496.143 3143.5,479.5C 3115.79,434.071 3097.62,385.071 3089,332.5C 3078.36,261.047 3090.36,193.713 3125,130.5C 3158.06,73.4561 3206.9,37.9561 3271.5,24C 3350.36,11.6717 3405.86,41.8383 3438,114.5C 3450.74,149.216 3447.41,182.216 3428,213.5C 3419.32,224.256 3408.82,232.756 3396.5,239C 3381.28,245.35 3365.62,250.183 3349.5,253.5C 3343.2,253.699 3339.36,250.699 3338,244.5C 3336.59,237.246 3337.93,230.579 3342,224.5C 3346.59,220.319 3351.76,219.486 3357.5,222C 3373.57,238.748 3390.57,239.748 3408.5,225C 3439.58,195.49 3447.42,160.657 3432,120.5C 3407.71,62.427 3364.21,37.5937 3301.5,46C 3231.57,58.0235 3177.73,93.8569 3140,153.5C 3102.92,225.283 3095.92,299.95 3119,377.5C 3128.04,408.235 3140.37,437.568 3156,465.5C 3222.78,386.839 3306.95,337.005 3408.5,316C 3438.62,310.472 3468.96,308.638 3499.5,310.5C 3500.57,254.224 3520.9,206.391 3560.5,167C 3605.09,130.284 3655.09,120.617 3710.5,138C 3733.26,145.103 3751.09,158.603 3764,178.5C 3768.8,185.83 3770.8,193.83 3770,202.5C 3750.99,174.224 3724.49,157.39 3690.5,152C 3632.54,146.895 3589.04,169.395 3560,219.5C 3544.3,249.629 3537.47,281.629 3539.5,315.5C 3552.46,317.24 3565.13,320.24 3577.5,324.5C 3576.89,300.482 3579.39,276.816 3585,253.5C 3588.23,240.801 3593.56,229.135 3601,218.5C 3616.04,201.948 3633.87,197.781 3654.5,206C 3664.25,215.745 3669.25,227.578 3669.5,241.5C 3658.56,239.509 3647.56,237.843 3636.5,236.5C 3617.4,237.776 3603.9,247.109 3596,264.5C 3586.91,284.285 3583.75,304.952 3586.5,326.5C 3599.19,331.345 3611.53,337.012 3623.5,343.5C 3621.88,331.957 3619.71,320.29 3617,308.5C 3615.54,302.554 3614.87,296.554 3615,290.5C 3640.92,300.586 3667.09,310.086 3693.5,319C 3724.46,331.966 3751.63,350.466 3775,374.5C 3794.69,398.899 3805.36,426.899 3807,458.5C 3807.34,466.529 3808,474.529 3809,482.5C 3808.66,465.174 3808.66,447.841 3809,430.5C 3809.56,402.538 3818.23,377.538 3835,355.5C 3847.13,342.697 3860.96,332.197 3876.5,324C 3909.92,306.956 3943.59,290.456 3977.5,274.5C 3977.83,275 3978.17,275.5 3978.5,276C 3976.42,291.286 3976.08,306.619 3977.5,322C 3980.06,364.214 3970.56,403.381 3949,439.5C 3944.24,446.262 3938.74,452.429 3932.5,458C 3912.97,472.171 3891.97,483.838 3869.5,493C 3856.03,497.881 3842.36,502.048 3828.5,505.5C 3828.96,508.877 3829.63,512.211 3830.5,515.5C 3850.36,507.742 3870.36,500.242 3890.5,493C 3901.32,490.03 3912.32,488.03 3923.5,487C 3978.21,447.199 4011.38,393.699 4023,326.5C 4030.45,279.683 4027.12,233.683 4013,188.5C 3990.26,171.751 3965.43,167.251 3938.5,175C 3916.53,188.08 3905.2,207.58 3904.5,233.5C 3908.31,247.936 3905.14,249.269 3895,237.5C 3878.82,211.127 3881.66,186.961 3903.5,165C 3921.02,153.296 3940.02,150.296 3960.5,156C 3978.98,161.32 3995.48,170.153 4010,182.5C 4004.36,164.554 3996.03,147.887 3985,132.5C 3966.52,106.692 3944.69,84.192 3919.5,65C 3893.69,46.9506 3865.02,36.6172 3833.5,34C 3827.96,28.529 3827.13,22.3624 3831,15.5C 3833.83,12.3353 3837.33,11.1687 3841.5,12C 3931.07,43.8996 3991.57,104.733 4023,194.5C 4065.27,233.626 4083.27,281.959 4077,339.5C 4068.69,384.625 4047.52,422.459 4013.5,453C 3996.39,468.395 3977.39,481.062 3956.5,491C 3995.71,505.546 4028.88,528.712 4056,560.5C 4063,568.833 4070,577.167 4077,585.5C 4081.32,590.485 4084.82,595.985 4087.5,602C 4057,610.626 4026.33,618.626 3995.5,626C 3963.21,632.55 3931.88,629.55 3901.5,617C 3887.65,610.488 3875.49,601.655 3865,590.5C 3871.95,607.022 3877.95,624.022 3883,641.5C 3885.5,652.79 3885.83,664.123 3884,675.5C 3880.84,694.15 3875.5,712.15 3868,729.5C 3853.3,762.561 3837.8,795.228 3821.5,827.5C 3808.5,807.657 3795.67,787.657 3783,767.5C 3765.1,740.789 3754.1,711.455 3750,679.5C 3749.67,672.833 3749.33,666.167 3749,659.5C 3746.5,661.333 3744,663.167 3741.5,665C 3709.55,714.838 3690.72,769.338 3685,828.5C 3677.11,905.406 3684.78,980.74 3708,1054.5C 3734.39,1134.88 3784.22,1196.04 3857.5,1238C 3899.28,1261.28 3943.95,1270.61 3991.5,1266C 4057.46,1254.96 4107.96,1221.12 4143,1164.5C 4167.52,1118.08 4176.52,1068.75 4170,1016.5C 4163.99,959.644 4139.49,912.811 4096.5,876C 4061.3,850.697 4021.97,840.03 3978.5,844C 3961.99,845.419 3945.66,847.919 3929.5,851.5C 3929.28,850.325 3929.61,849.325 3930.5,848.5C 4007.81,820.04 4075.31,835.04 4133,893.5C 4159.93,924.369 4177.6,960.036 4186,1000.5C 4188.07,1011.61 4189.91,1022.61 4191.5,1033.5C 4191.5,1049.5 4191.5,1065.5 4191.5,1081.5C 4184.35,1153.33 4151.35,1209.83 4092.5,1251C 4026.26,1290.35 3956.92,1296.69 3884.5,1270C 3828.54,1245.38 3782.71,1208.21 3747,1158.5C 3703.91,1094.56 3679.91,1023.89 3675,946.5C 3666.78,863.719 3678.78,784.052 3711,707.5C 3715.51,696.975 3720.68,686.808 3726.5,677C 3680.3,703.724 3630.3,718.39 3576.5,721C 3514.7,723.858 3454.03,716.858 3394.5,700C 3331.22,681.69 3269.89,658.357 3210.5,630C 3172.59,612.378 3134.92,594.212 3097.5,575.5C 3052.19,674.864 3053.69,773.531 3102,871.5C 3122.61,912.2 3152.44,944.367 3191.5,968C 3233.24,990.815 3276.24,993.482 3320.5,976C 3350.57,964.914 3374.41,946.081 3392,919.5C 3413.47,877.567 3410.47,837.567 3383,799.5C 3354.46,769.15 3319.3,751.983 3277.5,748C 3275.32,745.582 3274.99,742.916 3276.5,740C 3330.75,733.507 3373.58,752.34 3405,796.5C 3429.86,838.904 3430.86,881.904 3408,925.5C 3386.26,960.864 3355.1,983.698 3314.5,994C 3254.05,1010.05 3200.05,998.047 3152.5,958C 3098.35,906.354 3066.19,843.187 3056,768.5C 3047.67,699.829 3058.17,634.162 3087.5,571.5C 3074.11,563.889 3060.28,557.223 3046,551.5C 2863.26,586.741 2691.1,650.241 2529.5,742C 2469.52,775.837 2410.18,810.67 2351.5,846.5C 2350.42,847.365 2350.25,848.365 2351,849.5C 2388.06,914.292 2396.9,982.792 2377.5,1055C 2348.9,1141.6 2289.57,1192.26 2199.5,1207C 2132.33,1212.05 2070.66,1196.05 2014.5,1159C 1985.87,1138.04 1963.37,1111.88 1947,1080.5C 1937.74,1085.88 1928.24,1090.88 1918.5,1095.5C 1918.17,1096.17 1917.83,1096.83 1917.5,1097.5C 1947.35,1196.5 2007.02,1271.67 2096.5,1323C 2151.94,1356.19 2211.94,1371.53 2276.5,1369C 2300.1,1369.28 2322.1,1363.62 2342.5,1352C 2400.31,1315.6 2434.48,1263.43 2445,1195.5C 2448.28,1167.22 2442.61,1140.89 2428,1116.5C 2427.25,1115.36 2427.42,1114.36 2428.5,1113.5C 2449.35,1143.89 2457.85,1177.55 2454,1214.5C 2449.38,1246.07 2437.38,1274.4 2418,1299.5C 2402.3,1319.54 2383.8,1336.38 2362.5,1350C 2421.38,1329.13 2469.55,1293.63 2507,1243.5C 2521.63,1221.9 2532.8,1198.56 2540.5,1173.5C 2548.78,1204.11 2568.78,1219.78 2600.5,1220.5C 2660.05,1216.98 2700.22,1187.32 2721,1131.5C 2734.91,1092.06 2738.58,1051.73 2732,1010.5C 2724.67,975.673 2708.84,945.507 2684.5,920C 2654.69,893.443 2622.69,890.443 2588.5,911C 2563.27,935.535 2557.77,964.035 2572,996.5C 2576.94,1005.85 2583.44,1014.02 2591.5,1021C 2574.69,1011.83 2563.19,997.999 2557,979.5C 2552.84,960.478 2556.17,942.812 2567,926.5C 2597.02,881.626 2635.19,873.46 2681.5,902C 2736.07,940.935 2766.57,994.101 2773,1061.5C 2777.21,1111.98 2766.88,1159.32 2742,1203.5C 2716.69,1247.16 2683.85,1284.32 2643.5,1315C 2589.4,1356.06 2528.73,1383.06 2461.5,1396C 2444.54,1399.33 2427.54,1402.33 2410.5,1405C 2454.16,1418.13 2479.33,1447.3 2486,1492.5C 2491.38,1527.94 2484.38,1560.61 2465,1590.5C 2442.76,1618.12 2413.76,1631.78 2378,1631.5C 2347.1,1631.71 2321.1,1620.71 2300,1598.5C 2281.32,1575.1 2276.65,1549.1 2286,1520.5C 2302.05,1487.06 2328.55,1472.89 2365.5,1478C 2384.57,1481.75 2398.4,1492.25 2407,1509.5C 2413.48,1531.37 2406.98,1548.2 2387.5,1560C 2384.79,1561.91 2381.79,1562.74 2378.5,1562.5C 2378.28,1561.32 2378.61,1560.32 2379.5,1559.5C 2385.45,1556.05 2390.61,1551.71 2395,1546.5C 2400.17,1536.88 2399.17,1527.88 2392,1519.5C 2375.74,1502.75 2356.24,1496.91 2333.5,1502C 2316.25,1509.6 2306.08,1522.77 2303,1541.5C 2300.6,1576.2 2316.1,1598.36 2349.5,1608C 2388.17,1619.21 2421.34,1610.38 2449,1581.5C 2469.11,1553.95 2476.11,1523.28 2470,1489.5C 2460.99,1453.16 2439.16,1428 2404.5,1414C 2397.93,1411.69 2391.26,1409.69 2384.5,1408C 2287.59,1414.35 2194.59,1398.35 2105.5,1360C 1994.6,1309.61 1916.27,1228.11 1870.5,1115.5C 1790.28,1144.56 1707.61,1156.39 1622.5,1151C 1572.23,1145.61 1522.89,1135.61 1474.5,1121C 1472.83,1120.33 1471.17,1120.33 1469.5,1121C 1433.57,1184.29 1389.24,1241.29 1336.5,1292C 1274.17,1346.99 1206.84,1394.99 1134.5,1436C 1085.07,1465.05 1034.4,1492.05 982.5,1517C 907.636,1546.18 843.803,1591.01 791,1651.5C 757.491,1693.31 737.157,1740.97 730,1794.5C 723.949,1829.09 723.282,1863.76 728,1898.5C 731.469,1923.29 742.302,1944.13 760.5,1961C 767.289,1965.81 774.456,1969.98 782,1973.5C 783.954,1975.79 783.787,1977.95 781.5,1980C 774.059,1982.36 767.059,1981.36 760.5,1977C 745.96,1967.46 735.46,1954.63 729,1938.5C 717.049,1906.56 712.382,1873.56 715,1839.5C 719.891,1762.42 747.558,1695.09 798,1637.5C 833.697,1599.11 874.53,1567.61 920.5,1543C 871.201,1559.65 821.201,1574.32 770.5,1587C 751.209,1590.88 731.876,1594.55 712.5,1598C 678.076,1601.22 643.743,1605.22 609.5,1610C 606.471,1610.54 603.471,1611.21 600.5,1612C 594.293,1615.6 587.96,1618.94 581.5,1622C 564.988,1624.98 556.321,1618.15 555.5,1601.5C 555.463,1583.35 564.13,1576.18 581.5,1580C 586.673,1584.59 592.673,1587.59 599.5,1589C 609.5,1589.67 619.5,1589.67 629.5,1589C 679.256,1583.74 728.923,1577.74 778.5,1571C 880.586,1551.75 976.252,1515.75 1065.5,1463C 989.755,1493.49 911.089,1512.82 829.5,1521C 799.891,1523.84 770.224,1525.84 740.5,1527C 649.835,1526.17 559.168,1525.51 468.5,1525C 384.754,1528.02 304.421,1546.02 227.5,1579C 174.652,1602.2 128.819,1635.04 90,1677.5C 31.5208,1747.28 5.18744,1827.94 11,1919.5C 16.1075,2002.88 45.4408,2076.21 99,2139.5C 151.874,2197.35 217.707,2227.85 296.5,2231C 350.337,2234.9 401.004,2224.23 448.5,2199C 458.697,2192.73 468.364,2185.73 477.5,2178C 501.747,2154.77 522.581,2128.94 540,2100.5C 567.426,2050.97 568.426,2000.97 543,1950.5C 510.963,1901.24 465.463,1879.4 406.5,1885C 361.201,1891.81 323.201,1911.98 292.5,1945.5C 297.486,1961.85 291.486,1971.19 274.5,1973.5C 269.051,1985.07 266.718,1997.07 267.5,2009.5C 279.468,2013.09 283.968,2021.09 281,2033.5C 279.907,2036.59 278.074,2039.09 275.5,2041C 282.765,2053.94 291.932,2065.44 303,2075.5C 309.942,2069.99 316.609,2070.32 323,2076.5C 326.696,2083.37 326.196,2089.87 321.5,2096C 312.867,2101.53 305.701,2100.03 300,2091.5C 299.457,2086.76 299.457,2082.09 300,2077.5C 288.4,2067.91 279.067,2056.58 272,2043.5C 262.528,2047.05 254.862,2044.72 249,2036.5C 244.149,2024.23 247.649,2015.23 259.5,2009.5C 259.543,1995.86 261.543,1982.53 265.5,1969.5C 258.738,1961.4 257.904,1952.74 263,1943.5C 264.873,1941.29 267.04,1939.46 269.5,1938C 274.863,1936.53 280.196,1936.03 285.5,1936.5C 334.505,1882.33 394.839,1862.5 466.5,1877C 509.453,1891.62 539.953,1919.78 558,1961.5C 575.925,2008.1 575.925,2054.77 558,2101.5C 535.105,2156.73 495.938,2195.56 440.5,2218C 407.969,2231.38 374.302,2239.55 339.5,2242.5C 324.5,2242.5 309.5,2242.5 294.5,2242.5C 190.37,2233.21 110.537,2184.54 55,2096.5C 23.1853,2045.22 4.68526,1989.56 -0.5,1929.5C -0.5,1911.17 -0.5,1892.83 -0.5,1874.5C 12.532,1750.19 72.532,1656.36 179.5,1593C 253.158,1552.78 331.825,1528.45 415.5,1520C 442.758,1516.98 470.092,1514.98 497.5,1514C 548.335,1513.38 599.169,1513.55 650,1514.5C 676.505,1514.26 703.005,1513.76 729.5,1513C 671.983,1506.5 615.983,1493.5 561.5,1474C 530.168,1460.83 498.501,1448.5 466.5,1437C 335.751,1379.25 241.251,1285.08 183,1154.5C 103.879,976.568 90.879,793.902 144,606.5C 162.147,541.877 191.147,482.877 231,429.5C 299.138,344.543 387.305,310.377 495.5,327C 518.622,330.863 540.956,337.363 562.5,346.5C 579.366,301.763 601.199,259.763 628,220.5C 700.608,121.834 797.441,84.0004 918.5,107C 1020.82,130.65 1079.32,194.483 1094,298.5C 1099.2,336.914 1094.87,374.248 1081,410.5C 1057.68,463.439 1017.18,486.272 959.5,479C 924.209,470.702 894.709,452.869 871,425.5C 850.551,402.599 837.551,375.932 832,345.5C 828.335,323.163 830.668,301.496 839,280.5C 839.333,280.167 839.667,279.833 840,279.5C 841.421,282.009 843.088,284.343 845,286.5C 824.823,364.647 851.99,419.147 926.5,450C 990.968,467.292 1038.13,446.125 1068,386.5C 1090.6,329.817 1088.26,274.15 1061,219.5C 1033.84,174.036 994.673,143.87 943.5,129C 821.613,97.8504 721.78,131.35 644,229.5C 615.79,266.896 592.957,307.563 575.5,351.5C 629.693,380.802 664.527,425.469 680,485.5C 694.198,536.326 691.864,586.326 673,635.5C 650.763,684.034 612.93,706.201 559.5,702C 550.23,700.932 541.23,698.766 532.5,695.5C 541.027,789.932 566.527,879.599 609,964.5C 622.755,989.572 638.088,1013.57 655,1036.5C 659.147,1003.23 669.147,971.896 685,942.5C 690.276,934.289 696.276,926.623 703,919.5C 703.532,900.602 712.698,893.769 730.5,899C 737.325,904.132 739.825,910.965 738,919.5C 733.559,930.639 725.392,934.805 713.5,932C 694.836,952.149 682.003,975.649 675,1002.5C 670.319,1018.24 667.319,1034.24 666,1050.5C 691.127,1080.8 719.294,1107.8 750.5,1131.5C 766.237,1073.46 798.571,1027.3 847.5,993C 879.754,972.915 913.754,969.249 949.5,982C 983.099,1000.63 1004.27,1028.79 1013,1066.5C 1016.16,1079.19 1016.16,1091.85 1013,1104.5C 1008.66,1119.25 998.826,1126.58 983.5,1126.5C 999.723,1077.21 987.389,1036.71 946.5,1005C 916.896,992.232 888.229,994.232 860.5,1011C 813.62,1044.06 783.953,1088.72 771.5,1145C 771.785,1146.89 772.785,1148.22 774.5,1149C 849.843,1199.82 932.843,1230.15 1023.5,1240C 1100.41,1244.75 1173.74,1230.75 1243.5,1198C 1295.85,1173.51 1344.18,1143.01 1388.5,1106.5C 1392.31,1101.52 1396.31,1096.69 1400.5,1092C 1338.89,1062.38 1289.05,1019.22 1251,962.5C 1225.39,920.346 1209.73,874.679 1204,825.5C 1202.11,810.224 1201.28,794.89 1201.5,779.5C 1194.14,778.641 1189.3,774.641 1187,767.5C 1184.16,752.806 1190,744.139 1204.5,741.5C 1216.08,742.908 1222.41,749.408 1223.5,761C 1222.8,771.866 1217.13,778.032 1206.5,779.5C 1212.58,921.146 1278.91,1023.15 1405.5,1085.5C 1459.56,1017.55 1510.56,947.38 1558.5,875C 1531.61,886.998 1503.94,888.665 1475.5,880C 1438.67,864.819 1418.17,837.319 1414,797.5C 1411.67,775.465 1416.34,755.132 1428,736.5C 1444.92,718.464 1464.76,714.297 1487.5,724C 1497.16,733.114 1499,743.614 1493,755.5C 1485.8,762.205 1477.97,763.039 1469.5,758C 1465.58,754.672 1464.08,750.505 1465,745.5C 1473,752.107 1478.16,750.273 1480.5,740C 1477.47,727.648 1469.8,723.314 1457.5,727C 1444.25,733.269 1438.08,743.769 1439,758.5C 1446.27,794.433 1467.77,816.6 1503.5,825C 1516.62,826.711 1529.28,825.045 1541.5,820C 1559.07,812.053 1574.74,801.387 1588.5,788C 1623.33,753.167 1658.17,718.333 1693,683.5C 1728.36,638.807 1767.86,597.974 1811.5,561C 1829.14,546.848 1847.14,533.181 1865.5,520C 1769.41,546.147 1675.74,539.147 1584.5,499C 1485.47,451.209 1433.64,372.042 1429,261.5C 1421.95,233.873 1408.11,210.373 1387.5,191C 1366.56,175.742 1343.23,170.409 1317.5,175C 1262.4,183.992 1234.4,216.492 1233.5,272.5C 1233.15,303.313 1244.15,329.146 1266.5,350C 1278.3,359.102 1291.63,364.602 1306.5,366.5C 1318.07,365.628 1325.57,359.628 1329,348.5C 1334.19,337.055 1336.86,325.055 1337,312.5C 1338.83,314.156 1340.16,316.156 1341,318.5C 1346.01,337.198 1347.68,356.198 1346,375.5C 1343.59,397.941 1331.76,405.775 1310.5,399C 1294.5,392.677 1281,382.843 1270,369.5C 1244.13,337.765 1226.8,301.765 1218,261.5C 1212.01,228.782 1221.85,201.949 1247.5,181C 1293.75,147.079 1340.08,147.079 1386.5,181C 1405.23,196.95 1419.73,216.117 1430,238.5C 1433.03,200.395 1445.37,165.729 1467,134.5C 1502.08,94.4682 1546.41,74.4682 1600,74.5C 1638.9,73.0102 1671.56,86.3435 1698,114.5C 1715.32,137.113 1721.65,162.446 1717,190.5C 1709.37,213.131 1693.87,226.965 1670.5,232C 1643.11,234.386 1624.95,222.553 1616,196.5C 1612.41,184.068 1614.41,172.734 1622,162.5C 1623.47,181.598 1632.31,196.431 1648.5,207C 1663.01,213.012 1676.34,211.012 1688.5,201C 1705.13,187.123 1710.96,169.623 1706,148.5C 1696.53,123.026 1679.03,105.526 1653.5,96C 1622.85,85.5523 1592.52,86.5523 1562.5,99C 1514.59,117.245 1483.76,151.078 1470,200.5C 1456.16,251.586 1458.5,301.92 1477,351.5C 1496.05,404.213 1529.89,444.379 1578.5,472C 1636.9,505.015 1699.57,518.348 1766.5,512C 1818.14,508.273 1868.14,497.273 1916.5,479C 1959.62,460.942 2002.62,442.609 2045.5,424C 2165.5,377.888 2289.83,355.722 2418.5,357.5C 2480.14,356.627 2541.14,362.46 2601.5,375C 2645.37,385.217 2689.03,395.884 2732.5,407C 2626.75,365.297 2520.41,324.963 2413.5,286C 2373.23,272.465 2332.9,259.132 2292.5,246C 2271.44,240.254 2250.1,235.921 2228.5,233C 2220.91,229.527 2218.41,223.694 2221,215.5C 2224.21,208.985 2229.38,206.485 2236.5,208C 2249.55,215.194 2262.89,221.861 2276.5,228C 2307.61,240.724 2338.61,253.724 2369.5,267C 2410.24,281.136 2450.91,295.47 2491.5,310C 2562.64,337.991 2633.97,365.491 2705.5,392.5C 2706.7,392.154 2706.7,391.654 2705.5,391C 2636.37,349.546 2572.03,301.546 2512.5,247C 2466.61,201.777 2421.44,155.944 2377,109.5C 2365.67,96.1667 2354.33,82.8333 2343,69.5C 2338.09,62.672 2333.42,55.672 2329,48.5C 2324.14,44.399 2319.48,40.0657 2315,35.5C 2309.42,24.0099 2311.92,14.5099 2322.5,7C 2330.53,2.0298 2338.86,1.36313 2347.5,5C 2350.11,6.93842 2351.94,9.43842 2353,12.5C 2354.2,18.7684 2356.2,24.7684 2359,30.5C 2384.51,72.1973 2411.51,112.864 2440,152.5C 2466.33,185.168 2495.16,215.668 2526.5,244C 2567.52,281.706 2610.86,316.373 2656.5,348C 2670.85,357.83 2685.85,366.663 2701.5,374.5C 2702.7,374.154 2702.7,373.654 2701.5,373C 2616.8,324.515 2571.8,251.182 2566.5,153C 2566.43,113.879 2577.93,78.7123 2601,47.5C 2626.01,18.9117 2657.51,2.91169 2695.5,-0.5 Z M 4024.5,198.5 C 4039.03,212.233 4049.87,228.566 4057,247.5C 4083.66,326.026 4066.83,393.526 4006.5,450C 3989.39,465.395 3970.39,478.062 3949.5,488C 3944.16,488.186 3938.83,487.852 3933.5,487C 3977.74,452.707 4007.91,408.54 4024,354.5C 4039.15,302.538 4039.31,250.538 4024.5,198.5 Z M 3451.5,318.5 C 3467.5,318.5 3483.5,318.5 3499.5,318.5C 3499.12,398.613 3533.46,458.446 3602.5,498C 3616.82,505.329 3631.49,511.829 3646.5,517.5C 3635.81,523.174 3625.81,529.841 3616.5,537.5C 3550.24,520.712 3482.91,512.212 3414.5,512C 3340.75,509.71 3267.25,512.877 3194,521.5C 3192.39,520.899 3191.06,519.899 3190,518.5C 3179.77,503.938 3169.94,489.105 3160.5,474C 3236.47,383.342 3333.47,331.508 3451.5,318.5 Z M 3663.5,465.5 C 3629.41,457.213 3600.24,440.546 3576,415.5C 3553.63,388.9 3541.8,358.234 3540.5,323.5C 3553.92,326.522 3567.25,329.855 3580.5,333.5C 3586.68,378.694 3606.68,416.528 3640.5,447C 3648.07,453.41 3655.73,459.577 3663.5,465.5 Z M 3667.5,464.5 C 3645.12,448.624 3626.29,429.291 3611,406.5C 3598.93,384.452 3591.43,361.119 3588.5,336.5C 3601.3,341.153 3613.8,346.487 3626,352.5C 3631.15,378.235 3637.81,403.568 3646,428.5C 3651.41,441.682 3658.58,453.682 3667.5,464.5 Z M 403.5,1392.5 C 291.54,1328.35 213.706,1235.35 170,1113.5C 106.951,940.406 104.285,766.406 162,591.5C 185.806,522.776 222.973,462.609 273.5,411C 346.219,346.153 430.219,325.153 525.5,348C 537.165,350.666 548.498,354.333 559.5,359C 525.294,459.483 512.627,562.649 521.5,668.5C 521.167,669.833 520.833,671.167 520.5,672.5C 445.336,641.838 417.836,587.172 438,508.5C 436.333,506.167 434.667,503.833 433,501.5C 419.914,535.005 420.581,568.338 435,601.5C 453.525,641.859 482.692,671.859 522.5,691.5C 536.507,807.362 573.674,915.028 634,1014.5C 640.667,1023.83 647.333,1033.17 654,1042.5C 646.052,1103.3 652.385,1162.64 673,1220.5C 688.452,1265.74 709.452,1308.07 736,1347.5C 807.59,1441.39 902.09,1478.89 1019.5,1460C 917.51,1498.7 812.677,1508.86 705,1490.5C 580.156,1472.03 467.322,1425.53 366.5,1351C 310.617,1309.01 267.117,1256.84 236,1194.5C 197.241,1112.72 189.241,1028.05 212,940.5C 224.684,896.942 247.184,859.442 279.5,828C 302.215,807.472 328.548,793.472 358.5,786C 395.918,780.684 430.918,787.684 463.5,807C 494.252,824.808 520.752,847.642 543,875.5C 576.381,921.928 583.048,971.928 563,1025.5C 550.933,1051.05 530.599,1064.05 502,1064.5C 459.141,1060.97 428.141,1039.97 409,1001.5C 399.186,975.843 400.519,950.843 413,926.5C 420.504,915.167 431.004,909.167 444.5,908.5C 443.043,903.546 439.709,900.38 434.5,899C 416.082,893.684 404.248,900.184 399,918.5C 389.94,950.286 393.607,980.619 410,1009.5C 427.761,1041.26 454.261,1061.76 489.5,1071C 535.607,1079.37 564.441,1060.87 576,1015.5C 585.923,971.701 579.589,930.368 557,891.5C 523.768,835.793 476.601,796.96 415.5,775C 373.07,763.048 332.737,768.048 294.5,790C 247.108,820.09 215.608,862.256 200,916.5C 173.948,1020.08 186.614,1118.75 238,1212.5C 266.304,1262.83 302.138,1307.33 345.5,1346C 364.444,1362.12 383.777,1377.62 403.5,1392.5 Z M 570.5,363.5 C 616.813,384.649 648.313,419.315 665,467.5C 681.175,514.225 680.175,560.558 662,606.5C 635.425,663.205 591.258,686.205 529.5,675.5C 522.019,568.676 535.686,464.676 570.5,363.5 Z M 2244.5,391.5 C 2245.87,391.343 2247.21,391.51 2248.5,392C 2081.79,450.766 1962.63,560.932 1891,722.5C 1847.97,824.051 1834.64,929.384 1851,1038.5C 1854,1055.66 1858.16,1072.49 1863.5,1089C 1798.46,1114.43 1731.13,1129.76 1661.5,1135C 1597.74,1138.57 1535.41,1130.91 1474.5,1112C 1487.97,1088.9 1500.8,1065.4 1513,1041.5C 1547.78,969.262 1584.12,897.928 1622,827.5C 1677.55,729.708 1748.38,644.208 1834.5,571C 1936.9,490.687 2051.9,435.354 2179.5,405C 2201.21,400.027 2222.87,395.527 2244.5,391.5 Z M 2282.5,471.5 C 2238.28,526.509 2228.78,587.176 2254,653.5C 2279.92,713.06 2325.42,739.56 2390.5,733C 2451.06,725.748 2494.23,694.581 2520,639.5C 2527.72,613.391 2530.72,586.724 2529,559.5C 2528.4,552.095 2526.4,545.095 2523,538.5C 2520.04,533.769 2515.88,531.936 2510.5,533C 2500.07,536.278 2494.73,543.445 2494.5,554.5C 2494.34,559.189 2495.51,563.522 2498,567.5C 2503,572.5 2508,577.5 2513,582.5C 2518.58,592.927 2520.25,603.927 2518,615.5C 2513.65,634.525 2505.32,651.525 2493,666.5C 2447.17,717.111 2391.67,732.278 2326.5,712C 2291.77,696.405 2269.27,670.239 2259,633.5C 2246.8,577.983 2259.46,528.983 2297,486.5C 2299.77,483.223 2302.93,480.557 2306.5,478.5C 2265.79,531.124 2269.79,580.291 2318.5,626C 2350.43,651.315 2386.43,659.982 2426.5,652C 2447.69,645.471 2455.85,631.304 2451,609.5C 2447.29,596.086 2440.96,584.086 2432,573.5C 2427.17,568.667 2422.33,563.833 2417.5,559C 2413.71,555.774 2409.38,553.607 2404.5,552.5C 2403.17,553.167 2403.17,553.833 2404.5,554.5C 2412.29,557.236 2415.95,562.736 2415.5,571C 2411.1,594.734 2397.43,610.4 2374.5,618C 2334.4,622.697 2306.23,606.531 2290,569.5C 2280.07,539.473 2285.41,512.473 2306,488.5C 2320.35,473.404 2337.18,461.904 2356.5,454C 2380.66,445.167 2405.33,438.167 2430.5,433C 2501.37,420.321 2572.7,416.321 2644.5,421C 2744.17,433.584 2840.17,459.584 2932.5,499C 2966.52,513.511 3000.19,528.845 3033.5,545C 2975.3,557.301 2917.63,571.968 2860.5,589C 2759.67,620.608 2660.67,656.941 2563.5,698C 2483.52,734.229 2406.69,775.729 2333,822.5C 2306.02,787.188 2271.19,763.355 2228.5,751C 2188.36,742.606 2149.86,747.44 2113,765.5C 2106.1,758.71 2099.43,759.043 2093,766.5C 2091.93,770.084 2091.26,773.75 2091,777.5C 2083.37,782.735 2076.21,788.568 2069.5,795C 2052.58,791.687 2045.08,798.521 2047,815.5C 2047.97,817.274 2048.8,819.107 2049.5,821C 2045.76,827.883 2042.59,835.05 2040,842.5C 2023.58,842.246 2016.25,850.246 2018,866.5C 2022.51,878.005 2030.68,881.838 2042.5,878C 2052.68,871.422 2055.18,862.589 2050,851.5C 2048.17,849 2046,846.833 2043.5,845C 2046.33,837.511 2049.83,830.345 2054,823.5C 2060.98,826.723 2067.32,825.723 2073,820.5C 2077.38,813.701 2077.54,806.868 2073.5,800C 2079.4,793.101 2086.23,787.268 2094,782.5C 2107.78,789.189 2115.28,784.856 2116.5,769.5C 2179.95,739.641 2238.95,746.475 2293.5,790C 2305.83,801 2317.5,812.667 2328.5,825C 2267.23,863.272 2206.23,901.938 2145.5,941C 2098.66,970.261 2050.99,998.261 2002.5,1025C 1981.67,1036.16 1960.51,1046.66 1939,1056.5C 1928.92,1036.93 1921.59,1016.27 1917,994.5C 1911.04,968.145 1908.04,941.479 1908,914.5C 1931.69,777.569 1995.86,664.069 2100.5,574C 2154.88,529.294 2215.54,495.128 2282.5,471.5 Z M 3148.5,488.5 C 3156.83,499.515 3164.83,510.848 3172.5,522.5C 3156.29,525.532 3139.95,528.198 3123.5,530.5C 3122.83,530.167 3122.17,529.833 3121.5,529.5C 3130.16,515.527 3139.16,501.86 3148.5,488.5 Z M 3348.5,518.5 C 3401.59,518.583 3454.59,520.75 3507.5,525C 3542.19,528.949 3576.53,534.949 3610.5,543C 3599.62,552.884 3589.78,563.718 3581,575.5C 3565.75,597.675 3550.25,619.675 3534.5,641.5C 3574.04,646.205 3613.71,649.539 3653.5,651.5C 3672.55,651.135 3691.22,648.302 3709.5,643C 3725.18,636.077 3738.35,625.911 3749,612.5C 3761.03,596.442 3771.03,579.109 3779,560.5C 3779.41,560.043 3779.91,559.709 3780.5,559.5C 3783.37,560.775 3786.37,561.608 3789.5,562C 3775.09,581.457 3763.59,602.624 3755,625.5C 3709.3,663.759 3656.8,687.592 3597.5,697C 3477.44,714.993 3370.77,685.659 3277.5,609C 3248.32,585.315 3221.98,558.815 3198.5,529.5C 3223.35,525.845 3248.35,523.345 3273.5,522C 3298.65,520.584 3323.65,519.418 3348.5,518.5 Z M 3282.5,635.5 C 3260.25,627.026 3238.25,617.859 3216.5,608C 3179.68,590.757 3143.01,573.257 3106.5,555.5C 3109.37,550.251 3112.37,545.085 3115.5,540C 3136.1,536.342 3156.76,533.176 3177.5,530.5C 3197.8,557.306 3220.46,582.139 3245.5,605C 3257.73,615.409 3270.06,625.575 3282.5,635.5 Z M 3099.5,541.5 C 3100.55,541.351 3101.55,541.517 3102.5,542C 3100.79,545.248 3098.96,548.415 3097,551.5C 3092.45,549.478 3087.95,547.311 3083.5,545C 3088.99,543.925 3094.32,542.759 3099.5,541.5 Z M 2345.5,849.5 C 2370.01,889.356 2382.34,932.856 2382.5,980C 2382.14,1049.47 2356.81,1107.8 2306.5,1155C 2256.7,1194.62 2200.04,1210.29 2136.5,1202C 2055.4,1190.75 1993.57,1150.58 1951,1081.5C 1950.25,1080.36 1950.42,1079.36 1951.5,1078.5C 2022.99,1038.92 2094.33,999.087 2165.5,959C 2226.06,923.228 2286.06,886.728 2345.5,849.5 Z M 1905.5,930.5 C 1908.35,974.408 1918.35,1016.74 1935.5,1057.5C 1927.84,1061.99 1919.84,1065.99 1911.5,1069.5C 1909.19,1063.78 1907.69,1057.78 1907,1051.5C 1901.55,1011.24 1901.05,970.904 1905.5,930.5 Z M 664.5,1056.5 C 689.137,1087.3 716.97,1114.97 748,1139.5C 735.028,1247.03 771.194,1333.86 856.5,1400C 907.244,1435.13 963.577,1450.79 1025.5,1447C 1036.56,1446.14 1047.56,1445.14 1058.5,1444C 894.489,1484.07 776.322,1428.24 704,1276.5C 677.105,1221.25 662.939,1162.92 661.5,1101.5C 661.153,1086.36 662.153,1071.36 664.5,1056.5 Z M 769.5,1156.5 C 906.953,1251.53 1057.29,1279.36 1220.5,1240C 1242.9,1234.24 1264.9,1227.57 1286.5,1220C 1245.3,1260.55 1200.64,1296.55 1152.5,1328C 1111.53,1354.31 1067.2,1372.64 1019.5,1383C 935.445,1397.03 866.611,1371.2 813,1305.5C 778.17,1261.84 763.67,1212.17 769.5,1156.5 Z"></path>
  </g>
  <g>
    <path style="opacity:0.947" fill="#000000" d="M 2451.5,48.5 C 2468.3,47.8044 2475.47,55.8044 2473,72.5C 2466.78,84.5716 2457.61,87.4049 2445.5,81C 2435.99,70.7106 2436.32,60.7106 2446.5,51C 2448.31,50.2432 2449.98,49.4098 2451.5,48.5 Z"></path>
  </g>
  <g>
    <path style="opacity:0.956" fill="#000000" d="M 3080.5,86.5 C 3101.04,85.5749 3109.54,95.2415 3106,115.5C 3098.69,128.936 3088.19,132.103 3074.5,125C 3062.4,112.714 3062.73,100.714 3075.5,89C 3077.31,88.2432 3078.98,87.4098 3080.5,86.5 Z"></path>
  </g>
  <g>
    <path style="opacity:0.898" fill="#000000" d="M 1453.5,89.5 C 1461.99,89.1514 1465.82,93.1514 1465,101.5C 1462.65,106.426 1458.81,108.26 1453.5,107C 1445.69,101.211 1445.69,95.3776 1453.5,89.5 Z"></path>
  </g>
  <g>
    <path style="opacity:0.89" fill="#000000" d="M 2477.5,109.5 C 2486.66,108.491 2490.49,112.491 2489,121.5C 2488.22,123.286 2487.05,124.786 2485.5,126C 2475.89,128.055 2471.72,124.221 2473,114.5C 2474.02,112.313 2475.52,110.646 2477.5,109.5 Z"></path>
  </g>
  <g>
    <path style="opacity:0.916" fill="#000000" d="M 1348.5,112.5 C 1358.6,111.104 1362.77,115.438 1361,125.5C 1355.67,132.167 1350.33,132.167 1345,125.5C 1343.54,120.326 1344.71,115.993 1348.5,112.5 Z"></path>
  </g>
  <g>
    <path style="opacity:0.947" fill="#000000" d="M 1408.5,127.5 C 1425.45,127.616 1432.29,135.95 1429,152.5C 1423.68,162.723 1415.51,165.889 1404.5,162C 1395.17,155.063 1393,146.23 1398,135.5C 1400.81,131.853 1404.31,129.186 1408.5,127.5 Z"></path>
  </g>
  <g>
    <path style="opacity:0.901" fill="#000000" d="M 2500.5,148.5 C 2507.73,146.907 2511.73,149.741 2512.5,157C 2512.33,162.5 2509.5,165.333 2504,165.5C 2497.23,164.9 2494.56,161.234 2496,154.5C 2496.6,151.746 2498.1,149.746 2500.5,148.5 Z"></path>
  </g>
  <g>
    <path style="opacity:0.945" fill="#000000" d="M 2329.5,149.5 C 2346.91,149.075 2354.08,157.409 2351,174.5C 2344.4,186.058 2335.23,188.558 2323.5,182C 2317.38,175.136 2315.88,167.302 2319,158.5C 2321.51,154.189 2325.01,151.189 2329.5,149.5 Z"></path>
  </g>
  <g>
    <path style="opacity:0.948" fill="#000000" d="M 3052.5,169.5 C 3067.62,169.785 3074.45,177.451 3073,192.5C 3068.22,204.305 3059.72,208.138 3047.5,204C 3038.16,197.052 3035.99,188.219 3041,177.5C 3043.96,173.34 3047.79,170.673 3052.5,169.5 Z"></path>
  </g>
  <g>
    <path style="opacity:0.844" fill="#000000" d="M 2528.5,187.5 C 2535.09,187.657 2537.59,190.99 2536,197.5C 2532.61,201.032 2528.94,201.366 2525,198.5C 2523.05,193.842 2524.22,190.176 2528.5,187.5 Z"></path>
  </g>
  <g>
    <path style="opacity:0.893" fill="#000000" d="M 2386.5,194.5 C 2395.82,194.99 2398.99,199.657 2396,208.5C 2391.65,213.254 2386.98,213.588 2382,209.5C 2378.92,202.851 2380.42,197.851 2386.5,194.5 Z"></path>
  </g>
  <g>
    <path style="opacity:0.931" fill="#000000" d="M 3044.5,260.5 C 3057.31,259.816 3062.48,265.816 3060,278.5C 3055.02,285.99 3048.52,287.49 3040.5,283C 3035.82,277.209 3035.32,271.042 3039,264.5C 3040.81,263.023 3042.65,261.69 3044.5,260.5 Z"></path>
  </g>
  <g>
    <path style="opacity:0.917" fill="#000000" d="M 3062.5,348.5 C 3072.52,348.691 3076.35,353.691 3074,363.5C 3070.64,369.484 3065.8,370.984 3059.5,368C 3055.74,364.257 3054.57,359.757 3056,354.5C 3057.49,351.686 3059.66,349.686 3062.5,348.5 Z"></path>
  </g>
  <g>
    <path style="opacity:0.88" fill="#000000" d="M 3096.5,427.5 C 3106.05,427.885 3108.71,432.385 3104.5,441C 3094.59,444.093 3090.76,440.593 3093,430.5C 3094.15,429.364 3095.31,428.364 3096.5,427.5 Z"></path>
  </g>
  <g>
    <path style="opacity:0.811" fill="#000000" d="M 1956.5,428.5 C 1962.57,429.712 1963.91,432.878 1960.5,438C 1954.56,439.72 1952.06,437.553 1953,431.5C 1954.15,430.364 1955.31,429.364 1956.5,428.5 Z"></path>
  </g>
  <g>
    <path style="opacity:0.894" fill="#000000" d="M 1915.5,440.5 C 1923.7,440.529 1926.86,444.529 1925,452.5C 1922.49,456.212 1918.99,457.378 1914.5,456C 1910.79,453.487 1909.62,449.987 1911,445.5C 1912.02,443.313 1913.52,441.646 1915.5,440.5 Z"></path>
  </g>
  <g>
    <path style="opacity:0.913" fill="#000000" d="M 1872.5,447.5 C 1882.93,449.362 1886.43,455.362 1883,465.5C 1878.24,470.983 1872.74,471.816 1866.5,468C 1860.37,458.66 1862.37,451.826 1872.5,447.5 Z"></path>
  </g>
  <g>
    <path style="opacity:0.839" fill="#000000" d="M 1663.5,451.5 C 1667.48,451.306 1669.48,453.139 1669.5,457C 1668.88,461.081 1666.55,462.414 1662.5,461C 1659.64,457.376 1659.97,454.209 1663.5,451.5 Z"></path>
  </g>
  <g>
    <path style="opacity:0.929" fill="#000000" d="M 1820.5,461.5 C 1831.1,461.663 1835.26,466.996 1833,477.5C 1829.72,483.109 1824.89,484.942 1818.5,483C 1812.89,479.723 1811.06,474.89 1813,468.5C 1814.77,465.228 1817.27,462.895 1820.5,461.5 Z"></path>
  </g>
  <g>
    <path style="opacity:0.871" fill="#000000" d="M 1719.5,462.5 C 1727.66,461.823 1731.16,465.49 1730,473.5C 1727.77,477.861 1724.27,479.361 1719.5,478C 1714.43,475.017 1713.27,470.851 1716,465.5C 1717.15,464.364 1718.31,463.364 1719.5,462.5 Z"></path>
  </g>
  <g>
    <path style="opacity:0.921" fill="#000000" d="M 1769.5,464.5 C 1780.32,463.156 1784.82,467.823 1783,478.5C 1777.49,486.092 1771.49,486.425 1765,479.5C 1762.94,473.39 1764.44,468.39 1769.5,464.5 Z"></path>
  </g>
  <g>
    <path style="opacity:0.851" fill="#000000" d="M 3376.5,730.5 C 3384.35,730.694 3386.35,734.194 3382.5,741C 3377.31,742.872 3374.31,741.205 3373.5,736C 3373.61,733.601 3374.61,731.768 3376.5,730.5 Z"></path>
  </g>
  <g>
    <path style="opacity:0.906" fill="#000000" d="M 3422.5,743.5 C 3433.54,743.841 3436.54,749.008 3431.5,759C 3421.09,762.916 3416.59,759.416 3418,748.5C 3419.02,746.313 3420.52,744.646 3422.5,743.5 Z"></path>
  </g>
  <g>
    <path style="opacity:0.927" fill="#000000" d="M 3571.5,747.5 C 3587.61,747.38 3592.44,754.714 3586,769.5C 3577.92,775.583 3570.92,774.583 3565,766.5C 3561.91,758.277 3564.07,751.943 3571.5,747.5 Z"></path>
  </g>
  <g>
    <path style="opacity:0.917" fill="#000000" d="M 3470.5,752.5 C 3481.63,754.092 3484.96,760.092 3480.5,770.5C 3475,775.766 3469.5,775.766 3464,770.5C 3460.29,762.044 3462.46,756.044 3470.5,752.5 Z"></path>
  </g>
  <g>
    <path style="opacity:0.912" fill="#000000" d="M 3517.5,757.5 C 3528.59,755.761 3533.76,760.427 3533,771.5C 3529.13,779.518 3523.29,781.351 3515.5,777C 3509.75,769.753 3510.42,763.253 3517.5,757.5 Z"></path>
  </g>
  <g>
    <path style="opacity:0.912" fill="#000000" d="M 2785.5,873.5 C 2827.82,871.081 2861.98,886.415 2888,919.5C 2910.64,947.804 2923.64,980.137 2927,1016.5C 2933.18,1095.79 2915.18,1169.13 2873,1236.5C 2829.32,1306.51 2769.82,1358.35 2694.5,1392C 2641.72,1414.74 2586.72,1423.74 2529.5,1419C 2603.52,1423.74 2671.86,1406.41 2734.5,1367C 2844.07,1295.43 2903.4,1193.93 2912.5,1062.5C 2912.13,1025.02 2903.3,989.686 2886,956.5C 2866.31,926.143 2840.81,901.977 2809.5,884C 2800.43,880.252 2791.09,877.419 2781.5,875.5C 2782.95,874.828 2784.28,874.161 2785.5,873.5 Z"></path>
  </g>
</svg>
