<?xml version="1.0" encoding="UTF-8"?>
<svg xmlns="http://www.w3.org/2000/svg" xmlns:xlink="http://www.w3.org/1999/xlink" version="1.1" width="3366px" height="221px" style="shape-rendering:geometricPrecision; text-rendering:geometricPrecision; image-rendering:optimizeQuality; fill-rule:evenodd; clip-rule:evenodd">
  <g>
    <path style="opacity:0.972" fill="#000000" d="M 911.5,-0.5 C 916.833,-0.5 922.167,-0.5 927.5,-0.5C 942.563,4.26677 949.063,14.6001 947,30.5C 944.467,37.7221 940.3,43.8888 934.5,49C 921.906,57.9578 907.906,63.6245 892.5,66C 880.238,67.9921 867.904,69.3255 855.5,70C 829.83,70.5666 804.164,70.4 778.5,69.5C 760.435,68.6393 742.768,70.8059 725.5,76C 716.159,80.4951 708.159,86.6617 701.5,94.5C 697.253,87.2124 691.92,80.7124 685.5,75C 675.092,68.2954 665.592,69.4621 657,78.5C 653.054,84.057 649.887,90.057 647.5,96.5C 885.832,97.5 1124.17,97.8333 1362.5,97.5C 1368.61,81.4147 1380.27,71.9147 1397.5,69C 1420.19,66.2606 1437.02,74.7606 1448,94.5C 1455.48,121.047 1446.31,139.214 1420.5,149C 1401.28,154.153 1384.45,149.986 1370,136.5C 1366.34,132.166 1363.5,127.333 1361.5,122C 1123.5,121.5 885.5,121.333 647.5,121.5C 650.305,136.134 658.805,145.468 673,149.5C 680.809,148.353 687.142,144.686 692,138.5C 695.395,133.947 698.562,129.28 701.5,124.5C 711.847,138.01 725.514,145.844 742.5,148C 753.475,149.102 764.475,149.935 775.5,150.5C 813.268,147.043 850.935,147.876 888.5,153C 909.472,155.198 927.305,163.698 942,178.5C 949.333,189.5 949.333,200.5 942,211.5C 937.212,215.974 931.712,218.974 925.5,220.5C 921.167,220.5 916.833,220.5 912.5,220.5C 896.094,215.465 891.594,205.132 899,189.5C 903.661,185.847 907.161,181.347 909.5,176C 907.343,170.513 903.343,167.18 897.5,166C 870.053,160.962 842.72,161.628 815.5,168C 793.707,173.948 771.707,178.948 749.5,183C 716.88,188.066 686.546,182.066 658.5,165C 645.007,153.682 636.673,139.348 633.5,122C 612.5,121.333 591.5,121.333 570.5,122C 521.773,137.268 478.273,161.435 440,194.5C 400.379,175.959 359.213,161.793 316.5,152C 212.127,128.578 106.461,115.412 -0.5,112.5C -0.5,110.833 -0.5,109.167 -0.5,107.5C 104.347,104.102 208.014,91.2691 310.5,69C 355.16,59.1691 398.16,44.6691 439.5,25.5C 477.856,57.8557 521.189,81.689 569.5,97C 591.164,97.5 612.831,97.6666 634.5,97.5C 638.601,72.5621 652.267,55.0621 675.5,45C 698.042,36.1135 721.376,33.1135 745.5,36C 771.404,40.5591 797.071,46.2258 822.5,53C 843.017,57.3213 863.684,58.3213 884.5,56C 892.713,55.4847 900.213,52.9847 907,48.5C 909.971,44.3448 909.638,40.3448 906,36.5C 901.913,33.084 898.58,29.084 896,24.5C 893.749,16.1906 895.915,9.35729 902.5,4C 905.592,2.45406 908.592,0.95406 911.5,-0.5 Z M 433.5,62.5 C 458.179,80.8501 484.513,96.6834 512.5,110C 484.617,122.848 458.45,138.348 434,156.5C 380.766,135.482 325.932,119.982 269.5,110C 317.757,100.769 365.09,88.1026 411.5,72C 419.14,69.2955 426.474,66.1288 433.5,62.5 Z"></path>
  </g>
  <g>
    <path style="opacity:0.971" fill="#000000" d="M 2437.5,-0.5 C 2443.17,-0.5 2448.83,-0.5 2454.5,-0.5C 2463.17,2.68071 2468.51,8.84738 2470.5,18C 2470.02,21.7373 2468.86,25.2373 2467,28.5C 2463.42,32.2911 2460.09,36.2911 2457,40.5C 2455.65,46.3093 2457.82,50.1426 2463.5,52C 2479.18,56.4868 2495.18,58.1534 2511.5,57C 2521.92,56.3215 2532.25,54.9881 2542.5,53C 2567.92,46.2271 2593.59,40.5605 2619.5,36C 2643.62,33.1135 2666.96,36.1135 2689.5,45C 2712.76,54.856 2726.76,72.1893 2731.5,97C 2752.83,97.6667 2774.17,97.6667 2795.5,97C 2843.81,81.689 2887.14,57.8557 2925.5,25.5C 2965.6,44.1438 3007.26,58.3104 3050.5,68C 3110.84,82.0005 3171.84,92.0005 3233.5,98C 3277.43,102.295 3321.43,105.462 3365.5,107.5C 3365.5,109.167 3365.5,110.833 3365.5,112.5C 3263.04,115.348 3161.7,127.515 3061.5,149C 3027.9,156.646 2994.9,166.312 2962.5,178C 2949.93,182.951 2937.6,188.451 2925.5,194.5C 2886.96,161.551 2843.29,137.384 2794.5,122C 2773.49,121.167 2752.49,121.334 2731.5,122.5C 2726.48,147.681 2712.15,165.181 2688.5,175C 2663.7,184.454 2638.2,186.954 2612,182.5C 2591.01,178.377 2570.17,173.544 2549.5,168C 2522.28,161.599 2494.95,160.933 2467.5,166C 2461.86,167.471 2457.86,170.804 2455.5,176C 2456.33,177.816 2457.16,179.649 2458,181.5C 2464.84,186.361 2469.01,192.861 2470.5,201C 2468.79,211.538 2462.79,218.038 2452.5,220.5C 2448.17,220.5 2443.83,220.5 2439.5,220.5C 2423.52,216.34 2416.35,206.007 2418,189.5C 2420.13,181.414 2424.63,174.914 2431.5,170C 2443.26,161.743 2456.26,156.41 2470.5,154C 2510.02,148.101 2549.68,146.934 2589.5,150.5C 2606.17,150.747 2622.5,148.581 2638.5,144C 2648.71,139.8 2657.21,133.3 2664,124.5C 2668.75,133.578 2675.25,141.078 2683.5,147C 2694.34,150.834 2703.17,148 2710,138.5C 2713.6,133.301 2716.1,127.635 2717.5,121.5C 2479.5,121.333 2241.5,121.5 2003.5,122C 1995.16,141.019 1980.5,150.852 1959.5,151.5C 1938.95,150.766 1924.45,141.099 1916,122.5C 1911.37,89.2807 1925.87,71.2807 1959.5,68.5C 1980.28,68.7155 1994.95,78.2155 2003.5,97C 2241.5,97.5 2479.5,97.6667 2717.5,97.5C 2715.05,87.4308 2709.72,79.2641 2701.5,73C 2693.81,69.3342 2686.48,70.0009 2679.5,75C 2673.56,81.0799 2668.23,87.5799 2663.5,94.5C 2652.18,80.67 2637.51,72.8366 2619.5,71C 2608.53,70.0005 2597.53,69.5005 2586.5,69.5C 2560.84,70.4 2535.17,70.5666 2509.5,70C 2489.36,69.361 2469.69,66.0277 2450.5,60C 2439.11,55.7267 2429.61,48.8933 2422,39.5C 2413.01,20.5067 2418.17,7.17334 2437.5,-0.5 Z M 2930.5,62.5 C 2967.75,77.8997 3006.09,90.0664 3045.5,99C 3062.17,102.668 3078.84,106.335 3095.5,110C 3039.08,120.031 2984.25,135.531 2931,156.5C 2906.55,138.348 2880.38,122.848 2852.5,110C 2880.36,96.9162 2906.36,81.0829 2930.5,62.5 Z"></path>
  </g>
  <g>
    <path style="opacity:0.963" fill="#000000" d="M 1516.5,85.5 C 1533.37,85.0407 1543.37,93.0407 1546.5,109.5C 1545.41,122.091 1538.74,129.924 1526.5,133C 1510.97,135.653 1500.13,129.819 1494,115.5C 1492.18,98.4908 1499.68,88.4908 1516.5,85.5 Z"></path>
  </g>
  <g>
    <path style="opacity:0.963" fill="#000000" d="M 1625.5,85.5 C 1649.95,87.1031 1658.45,99.4365 1651,122.5C 1641.25,133.741 1629.42,136.574 1615.5,131C 1601.6,122.488 1598.43,110.988 1606,96.5C 1611.09,90.1019 1617.59,86.4353 1625.5,85.5 Z"></path>
  </g>
  <g>
    <path style="opacity:0.96" fill="#000000" d="M 1733.5,85.5 C 1750.61,85.1248 1760.61,93.2914 1763.5,110C 1761.25,125.245 1752.42,133.079 1737,133.5C 1721.3,132.964 1712.47,124.964 1710.5,109.5C 1712.08,95.5916 1719.74,87.5916 1733.5,85.5 Z"></path>
  </g>
  <g>
    <path style="opacity:0.965" fill="#000000" d="M 1842.5,85.5 C 1866.99,87.2018 1875.49,99.5351 1868,122.5C 1858.38,133.748 1846.54,136.582 1832.5,131C 1818.93,122.533 1815.76,111.033 1823,96.5C 1828.34,90.5845 1834.84,86.9178 1842.5,85.5 Z"></path>
  </g>
</svg>
